# xmcd
#
# Track frame offsets:
#	150
#	15150
#	29025
#	45150
#	66525
#	79425
#	90300
#	100725
#	117300
#	136950
#	159150
#	179850
#	196650
#	214875
#	238050
#
# Disc length: 3767 seconds
#
# Revision: 0
# Processed by: cddbd v1.5.1PL2 Copyright (c) Steve Scherf et al.
# Submitted via: dBpowerAMP V4.0
#
DISCID=c60eb50f
DTITLE=R.L. Burnside - 2000-04-29 Double Decker Arts Fest Oxford, MS SBD
DYEAR=1900
DGENRE=
TTITLE0=Poor Black Mattie
TTITLE1=Long Haired Doney
TTITLE2=Fireman Ring the Bell
TTITLE3=Boogie Chillin
TTITLE4=Shake em' on Down
TTITLE5=Walkin' Blues
TTITLE6=Story Time
TTITLE7=Whiskey and Women
TTITLE8=Poor Boy
TTITLE9=Goin' Down South
TTITLE10=Jumper on the Line
TTITLE11=Goin' Away Baby
TTITLE12=Dust my Broom
TTITLE13=Let My Baby Ride
TTITLE14=Hoochie Coochie Man
EXTD=
EXTT0=
EXTT1=
EXTT2=
EXTT3=
EXTT4=
EXTT5=
EXTT6=
EXTT7=
EXTT8=
EXTT9=
EXTT10=
EXTT11=
EXTT12=
EXTT13=
EXTT14=
PLAYORDER=
